<svg xmlns="http://www.w3.org/2000/svg" xmlns:xlink="http://www.w3.org/1999/xlink" width="260" zoomAndPan="magnify" viewBox="0 0 194.87999 30.000001" height="40" preserveAspectRatio="xMidYMid meet" version="1.2"><defs><clipPath id="f3ac0dbf57"><path d="M 13.703125 1.78125 L 28.945312 1.78125 L 28.945312 27.183594 L 13.703125 27.183594 Z M 13.703125 1.78125 "/></clipPath></defs><g id="7495112236"><g style="fill:#000000;fill-opacity:1;"><g transform="translate(31.905564, 19.587593)"><path style="stroke:none" d="M 11.921875 -8.359375 C 12.960938 -8.359375 13.78125 -8.054688 14.375 -7.453125 C 14.96875 -6.859375 15.265625 -5.976562 15.265625 -4.8125 L 15.265625 0 L 14.140625 0 L 14.140625 -4.703125 C 14.140625 -5.566406 13.929688 -6.222656 13.515625 -6.671875 C 13.097656 -7.128906 12.507812 -7.359375 11.75 -7.359375 C 10.894531 -7.359375 10.21875 -7.09375 9.71875 -6.5625 C 9.226562 -6.03125 8.984375 -5.296875 8.984375 -4.359375 L 8.984375 0 L 7.859375 0 L 7.859375 -4.703125 C 7.859375 -5.566406 7.648438 -6.222656 7.234375 -6.671875 C 6.816406 -7.128906 6.222656 -7.359375 5.453125 -7.359375 C 4.609375 -7.359375 3.9375 -7.09375 3.4375 -6.5625 C 2.9375 -6.03125 2.6875 -5.296875 2.6875 -4.359375 L 2.6875 0 L 1.5625 0 L 1.5625 -8.296875 L 2.640625 -8.296875 L 2.640625 -6.78125 C 2.929688 -7.289062 3.335938 -7.679688 3.859375 -7.953125 C 4.390625 -8.222656 5 -8.359375 5.6875 -8.359375 C 6.375 -8.359375 6.972656 -8.210938 7.484375 -7.921875 C 7.992188 -7.628906 8.375 -7.191406 8.625 -6.609375 C 8.9375 -7.160156 9.378906 -7.585938 9.953125 -7.890625 C 10.523438 -8.203125 11.179688 -8.359375 11.921875 -8.359375 Z M 11.921875 -8.359375 "/></g></g><g style="fill:#000000;fill-opacity:1;"><g transform="translate(48.636507, 19.587593)"><path style="stroke:none" d="M 4.46875 -8.359375 C 5.550781 -8.359375 6.378906 -8.085938 6.953125 -7.546875 C 7.535156 -7.003906 7.828125 -6.203125 7.828125 -5.140625 L 7.828125 0 L 6.75 0 L 6.75 -1.296875 C 6.5 -0.859375 6.128906 -0.519531 5.640625 -0.28125 C 5.148438 -0.0390625 4.566406 0.078125 3.890625 0.078125 C 2.972656 0.078125 2.238281 -0.140625 1.6875 -0.578125 C 1.144531 -1.023438 0.875 -1.609375 0.875 -2.328125 C 0.875 -3.035156 1.128906 -3.601562 1.640625 -4.03125 C 2.148438 -4.46875 2.960938 -4.6875 4.078125 -4.6875 L 6.703125 -4.6875 L 6.703125 -5.1875 C 6.703125 -5.90625 6.5 -6.453125 6.09375 -6.828125 C 5.695312 -7.203125 5.117188 -7.390625 4.359375 -7.390625 C 3.828125 -7.390625 3.316406 -7.300781 2.828125 -7.125 C 2.347656 -6.945312 1.9375 -6.707031 1.59375 -6.40625 L 1.09375 -7.25 C 1.507812 -7.601562 2.007812 -7.875 2.59375 -8.0625 C 3.1875 -8.257812 3.8125 -8.359375 4.46875 -8.359375 Z M 4.078125 -0.8125 C 4.703125 -0.8125 5.238281 -0.953125 5.6875 -1.234375 C 6.144531 -1.523438 6.484375 -1.945312 6.703125 -2.5 L 6.703125 -3.84375 L 4.109375 -3.84375 C 2.679688 -3.84375 1.96875 -3.347656 1.96875 -2.359375 C 1.96875 -1.878906 2.148438 -1.5 2.515625 -1.21875 C 2.890625 -0.945312 3.410156 -0.8125 4.078125 -0.8125 Z M 5.640625 -11.546875 L 7.140625 -11.546875 L 4.578125 -9.59375 L 3.46875 -9.59375 Z M 5.640625 -11.546875 "/></g></g><g style="fill:#000000;fill-opacity:1;"><g transform="translate(57.971788, 19.587593)"><path style="stroke:none" d="M 9.140625 -8.296875 L 9.140625 3.0625 L 8.015625 3.0625 L 8.015625 -1.5625 C 7.671875 -1.019531 7.226562 -0.609375 6.6875 -0.328125 C 6.144531 -0.0546875 5.535156 0.078125 4.859375 0.078125 C 4.066406 0.078125 3.359375 -0.0976562 2.734375 -0.453125 C 2.109375 -0.804688 1.613281 -1.300781 1.25 -1.9375 C 0.894531 -2.582031 0.71875 -3.320312 0.71875 -4.15625 C 0.71875 -4.96875 0.894531 -5.695312 1.25 -6.34375 C 1.613281 -6.988281 2.109375 -7.484375 2.734375 -7.828125 C 3.367188 -8.179688 4.078125 -8.359375 4.859375 -8.359375 C 5.554688 -8.359375 6.179688 -8.210938 6.734375 -7.921875 C 7.285156 -7.628906 7.726562 -7.207031 8.0625 -6.65625 L 8.0625 -8.296875 Z M 4.953125 -0.921875 C 5.535156 -0.921875 6.0625 -1.050781 6.53125 -1.3125 C 7 -1.582031 7.363281 -1.960938 7.625 -2.453125 C 7.894531 -2.953125 8.03125 -3.519531 8.03125 -4.15625 C 8.03125 -4.78125 7.894531 -5.335938 7.625 -5.828125 C 7.363281 -6.316406 7 -6.695312 6.53125 -6.96875 C 6.0625 -7.25 5.535156 -7.390625 4.953125 -7.390625 C 4.367188 -7.390625 3.84375 -7.25 3.375 -6.96875 C 2.90625 -6.695312 2.535156 -6.316406 2.265625 -5.828125 C 1.992188 -5.335938 1.859375 -4.78125 1.859375 -4.15625 C 1.859375 -3.519531 1.992188 -2.953125 2.265625 -2.453125 C 2.535156 -1.960938 2.90625 -1.582031 3.375 -1.3125 C 3.84375 -1.050781 4.367188 -0.921875 4.953125 -0.921875 Z M 4.953125 -0.921875 "/></g></g><g style="fill:#000000;fill-opacity:1;"><g transform="translate(68.663192, 19.587593)"><path style="stroke:none" d="M 9.046875 -8.296875 L 9.046875 0 L 7.96875 0 L 7.96875 -1.515625 C 7.675781 -1.003906 7.269531 -0.609375 6.75 -0.328125 C 6.238281 -0.0546875 5.648438 0.078125 4.984375 0.078125 C 3.898438 0.078125 3.046875 -0.222656 2.421875 -0.828125 C 1.796875 -1.429688 1.484375 -2.316406 1.484375 -3.484375 L 1.484375 -8.296875 L 2.609375 -8.296875 L 2.609375 -3.59375 C 2.609375 -2.71875 2.820312 -2.054688 3.25 -1.609375 C 3.675781 -1.160156 4.289062 -0.9375 5.09375 -0.9375 C 5.96875 -0.9375 6.65625 -1.203125 7.15625 -1.734375 C 7.664062 -2.265625 7.921875 -3 7.921875 -3.9375 L 7.921875 -8.296875 Z M 9.046875 -8.296875 "/></g></g><g style="fill:#000000;fill-opacity:1;"><g transform="translate(79.27575, 19.587593)"><path style="stroke:none" d="M 1.5625 -8.296875 L 2.6875 -8.296875 L 2.6875 0 L 1.5625 0 Z M 2.125 -10.109375 C 1.894531 -10.109375 1.695312 -10.1875 1.53125 -10.34375 C 1.375 -10.507812 1.296875 -10.703125 1.296875 -10.921875 C 1.296875 -11.128906 1.375 -11.3125 1.53125 -11.46875 C 1.695312 -11.625 1.894531 -11.703125 2.125 -11.703125 C 2.351562 -11.703125 2.546875 -11.625 2.703125 -11.46875 C 2.867188 -11.320312 2.953125 -11.144531 2.953125 -10.9375 C 2.953125 -10.707031 2.867188 -10.507812 2.703125 -10.34375 C 2.546875 -10.1875 2.351562 -10.109375 2.125 -10.109375 Z M 2.125 -10.109375 "/></g></g><g style="fill:#000000;fill-opacity:1;"><g transform="translate(83.517622, 19.587593)"><path style="stroke:none" d="M 5.796875 -8.359375 C 6.835938 -8.359375 7.664062 -8.054688 8.28125 -7.453125 C 8.894531 -6.847656 9.203125 -5.96875 9.203125 -4.8125 L 9.203125 0 L 8.078125 0 L 8.078125 -4.703125 C 8.078125 -5.566406 7.859375 -6.222656 7.421875 -6.671875 C 6.992188 -7.128906 6.382812 -7.359375 5.59375 -7.359375 C 4.695312 -7.359375 3.988281 -7.09375 3.46875 -6.5625 C 2.945312 -6.03125 2.6875 -5.296875 2.6875 -4.359375 L 2.6875 0 L 1.5625 0 L 1.5625 -8.296875 L 2.640625 -8.296875 L 2.640625 -6.765625 C 2.941406 -7.273438 3.363281 -7.664062 3.90625 -7.9375 C 4.445312 -8.21875 5.078125 -8.359375 5.796875 -8.359375 Z M 5.796875 -8.359375 "/></g></g><g style="fill:#000000;fill-opacity:1;"><g transform="translate(94.193259, 19.587593)"><path style="stroke:none" d="M 4.46875 -8.359375 C 5.550781 -8.359375 6.378906 -8.085938 6.953125 -7.546875 C 7.535156 -7.003906 7.828125 -6.203125 7.828125 -5.140625 L 7.828125 0 L 6.75 0 L 6.75 -1.296875 C 6.5 -0.859375 6.128906 -0.519531 5.640625 -0.28125 C 5.148438 -0.0390625 4.566406 0.078125 3.890625 0.078125 C 2.972656 0.078125 2.238281 -0.140625 1.6875 -0.578125 C 1.144531 -1.023438 0.875 -1.609375 0.875 -2.328125 C 0.875 -3.035156 1.128906 -3.601562 1.640625 -4.03125 C 2.148438 -4.46875 2.960938 -4.6875 4.078125 -4.6875 L 6.703125 -4.6875 L 6.703125 -5.1875 C 6.703125 -5.90625 6.5 -6.453125 6.09375 -6.828125 C 5.695312 -7.203125 5.117188 -7.390625 4.359375 -7.390625 C 3.828125 -7.390625 3.316406 -7.300781 2.828125 -7.125 C 2.347656 -6.945312 1.9375 -6.707031 1.59375 -6.40625 L 1.09375 -7.25 C 1.507812 -7.601562 2.007812 -7.875 2.59375 -8.0625 C 3.1875 -8.257812 3.8125 -8.359375 4.46875 -8.359375 Z M 4.078125 -0.8125 C 4.703125 -0.8125 5.238281 -0.953125 5.6875 -1.234375 C 6.144531 -1.523438 6.484375 -1.945312 6.703125 -2.5 L 6.703125 -3.84375 L 4.109375 -3.84375 C 2.679688 -3.84375 1.96875 -3.347656 1.96875 -2.359375 C 1.96875 -1.878906 2.148438 -1.5 2.515625 -1.21875 C 2.890625 -0.945312 3.410156 -0.8125 4.078125 -0.8125 Z M 4.078125 -0.8125 "/></g></g><g style="fill:#000000;fill-opacity:1;"><g transform="translate(103.496986, 19.587593)"><path style="stroke:none" d="M 3.78125 0.078125 C 3.113281 0.078125 2.472656 -0.015625 1.859375 -0.203125 C 1.242188 -0.398438 0.757812 -0.648438 0.40625 -0.953125 L 0.921875 -1.828125 C 1.265625 -1.554688 1.695312 -1.332031 2.21875 -1.15625 C 2.75 -0.988281 3.296875 -0.90625 3.859375 -0.90625 C 4.617188 -0.90625 5.179688 -1.019531 5.546875 -1.25 C 5.910156 -1.488281 6.09375 -1.820312 6.09375 -2.25 C 6.09375 -2.5625 5.988281 -2.800781 5.78125 -2.96875 C 5.582031 -3.144531 5.332031 -3.273438 5.03125 -3.359375 C 4.726562 -3.453125 4.320312 -3.539062 3.8125 -3.625 C 3.144531 -3.75 2.601562 -3.878906 2.1875 -4.015625 C 1.78125 -4.148438 1.429688 -4.375 1.140625 -4.6875 C 0.847656 -5 0.703125 -5.4375 0.703125 -6 C 0.703125 -6.6875 0.992188 -7.25 1.578125 -7.6875 C 2.160156 -8.132812 2.96875 -8.359375 4 -8.359375 C 4.53125 -8.359375 5.0625 -8.285156 5.59375 -8.140625 C 6.132812 -8.003906 6.578125 -7.820312 6.921875 -7.59375 L 6.4375 -6.6875 C 5.75 -7.164062 4.9375 -7.40625 4 -7.40625 C 3.28125 -7.40625 2.738281 -7.273438 2.375 -7.015625 C 2.007812 -6.765625 1.828125 -6.4375 1.828125 -6.03125 C 1.828125 -5.71875 1.929688 -5.460938 2.140625 -5.265625 C 2.347656 -5.078125 2.601562 -4.9375 2.90625 -4.84375 C 3.207031 -4.757812 3.628906 -4.671875 4.171875 -4.578125 C 4.828125 -4.453125 5.351562 -4.328125 5.75 -4.203125 C 6.15625 -4.078125 6.5 -3.859375 6.78125 -3.546875 C 7.070312 -3.242188 7.21875 -2.820312 7.21875 -2.28125 C 7.21875 -1.5625 6.910156 -0.988281 6.296875 -0.5625 C 5.691406 -0.132812 4.851562 0.078125 3.78125 0.078125 Z M 3.78125 0.078125 "/></g></g><g clip-rule="nonzero" clip-path="url(#f3ac0dbf57)"><path style=" stroke:none;fill-rule:nonzero;fill:#000000;fill-opacity:1;" d="M 25.804688 14.835938 C 25.449219 13.589844 25.09375 12.375 26.128906 11.207031 C 25.769531 12.386719 26.207031 13.386719 26.535156 14.40625 C 26.640625 14.722656 26.746094 15.050781 26.511719 15.355469 C 26.457031 15.425781 26.3125 15.511719 26.261719 15.484375 C 25.863281 15.285156 25.457031 15.359375 25.070312 15.464844 C 24.585938 15.59375 24.132812 15.535156 23.65625 15.453125 C 23.320312 15.394531 22.960938 15.4375 22.621094 15.472656 C 22.5 15.488281 22.394531 15.453125 22.304688 15.375 C 22.214844 15.292969 22.171875 15.191406 22.171875 15.074219 C 22.167969 14.816406 22.203125 14.5625 22.269531 14.3125 C 22.417969 13.722656 22.597656 13.136719 22.75 12.546875 C 22.871094 12.070312 22.804688 11.605469 22.621094 11.15625 C 22.375 10.574219 22.296875 9.96875 22.394531 9.34375 C 22.003906 9.660156 21.832031 10.015625 21.816406 10.378906 C 21.359375 10.433594 20.917969 10.472656 20.472656 10.53125 C 20.152344 10.574219 19.878906 10.539062 19.691406 10.234375 C 19.628906 10.15625 19.5625 10.085938 19.492188 10.015625 C 19.511719 10.242188 19.523438 10.382812 19.539062 10.566406 C 19.152344 10.210938 19.136719 9.78125 19.257812 9.367188 C 19.347656 9.070312 19.507812 8.746094 19.738281 8.554688 C 20.367188 8.039062 21.042969 7.589844 21.703125 7.117188 C 21.910156 6.96875 22.117188 7.011719 22.335938 7.113281 C 23.511719 7.652344 24.140625 8.617188 24.242188 9.855469 C 24.371094 11.386719 24.363281 12.925781 24.40625 14.464844 C 24.421875 14.945312 24.40625 14.949219 24.886719 14.914062 C 25.175781 14.902344 25.457031 14.867188 25.804688 14.835938 Z M 23.652344 16.804688 C 23.230469 16.53125 22.796875 16.292969 22.339844 16.082031 C 21.789062 15.824219 21.464844 15.390625 21.566406 14.789062 C 21.660156 14.222656 21.871094 13.675781 21.992188 13.109375 C 22.0625 12.785156 22.085938 12.460938 22.066406 12.132812 C 22.0625 12.035156 21.863281 11.867188 21.75 11.863281 C 21.265625 11.847656 20.949219 11.621094 20.734375 11.199219 C 20.675781 11.117188 20.597656 11.066406 20.5 11.042969 C 20.246094 10.980469 19.984375 10.9375 19.648438 10.871094 C 19.476562 11.179688 19.238281 11.535156 19.078125 11.925781 C 18.984375 12.179688 18.957031 12.441406 19.007812 12.707031 C 19.230469 13.878906 20.164062 14.558594 20.871094 15.421875 C 20.976562 14.859375 21.066406 14.34375 21.160156 13.832031 L 21.253906 13.847656 C 21.214844 14.910156 21.175781 15.96875 21.136719 17.027344 L 21.402344 17.121094 L 21.394531 17.171875 L 21.144531 17.191406 C 21.128906 17.75 21.214844 17.929688 21.726562 18.078125 C 22.050781 18.171875 22.410156 18.226562 22.730469 18.167969 C 23.226562 18.074219 23.703125 17.875 24.214844 17.710938 C 24.128906 17.289062 23.945312 16.992188 23.652344 16.804688 Z M 26.746094 19.359375 C 26.777344 19.160156 26.746094 19.039062 26.535156 18.96875 C 26.304688 18.890625 26.082031 18.78125 25.859375 18.679688 C 24.964844 18.292969 24.066406 18.230469 23.15625 18.628906 C 22.863281 18.757812 22.554688 18.851562 22.265625 18.988281 C 22.164062 19.046875 22.101562 19.136719 22.082031 19.257812 C 22.074219 19.828125 22.320312 20.285156 22.773438 20.652344 L 22.820312 20.320312 L 23.152344 20.890625 C 23.171875 20.703125 23.1875 20.589844 23.203125 20.449219 L 23.613281 20.964844 L 23.613281 20.300781 L 23.667969 20.300781 C 23.699219 20.421875 23.734375 20.546875 23.769531 20.710938 C 23.820312 20.515625 23.855469 20.382812 23.898438 20.210938 C 23.953125 20.292969 23.980469 20.328125 24.003906 20.371094 L 24.21875 20.113281 C 24.261719 20.261719 24.289062 20.355469 24.3125 20.433594 C 24.355469 20.347656 24.398438 20.246094 24.472656 20.101562 C 24.511719 20.253906 24.539062 20.34375 24.574219 20.472656 C 24.652344 20.351562 24.703125 20.273438 24.78125 20.148438 L 24.953125 20.601562 C 25.003906 20.460938 25.039062 20.359375 25.070312 20.253906 L 25.128906 20.257812 C 25.15625 20.460938 25.183594 20.660156 25.21875 20.914062 L 25.5625 20.347656 C 25.589844 20.570312 25.609375 20.71875 25.628906 20.894531 L 25.941406 20.273438 C 25.957031 20.460938 25.964844 20.550781 25.976562 20.652344 C 26.570312 20.109375 26.644531 19.96875 26.746094 19.359375 Z M 27.578125 14.425781 C 27.5625 14.121094 27.472656 13.777344 27.300781 13.527344 C 26.902344 12.949219 26.878906 12.554688 27.707031 12.371094 C 28.300781 12.242188 28.707031 11.65625 28.722656 11.054688 C 28.5625 11.046875 28.402344 11.046875 28.246094 11.058594 C 28.167969 11.074219 28.105469 11.117188 28.070312 11.1875 C 27.933594 11.640625 27.589844 11.816406 27.171875 11.824219 C 26.84375 11.828125 26.730469 12 26.695312 12.265625 C 26.671875 12.414062 26.671875 12.5625 26.707031 12.710938 C 26.867188 13.273438 27.066406 13.828125 27.210938 14.398438 C 27.429688 15.261719 27.183594 15.734375 26.367188 16.09375 C 26.308594 16.125 26.25 16.148438 26.191406 16.171875 C 25.648438 16.316406 25.265625 16.695312 24.894531 17.074219 C 24.75 17.222656 24.691406 17.453125 24.582031 17.671875 C 25.042969 17.847656 25.433594 18.011719 25.835938 18.140625 C 26.320312 18.296875 26.785156 18.253906 27.234375 18.019531 C 27.390625 17.941406 27.578125 17.785156 27.613281 17.632812 C 27.675781 17.363281 27.628906 17.074219 27.628906 16.792969 L 27.265625 16.71875 C 27.386719 16.671875 27.433594 16.652344 27.484375 16.636719 C 27.53125 16.625 27.585938 16.613281 27.59375 16.613281 C 27.589844 15.859375 27.617188 15.140625 27.578125 14.425781 Z M 18.039062 22.445312 C 17.472656 21.457031 17.058594 20.503906 16.886719 19.472656 C 16.78125 18.890625 16.746094 18.300781 16.789062 17.710938 C 16.875 16.667969 17.453125 15.847656 18.15625 15.113281 C 18.230469 15.035156 18.300781 14.953125 18.371094 14.875 C 18.292969 14.859375 18.222656 14.875 18.15625 14.921875 C 18.003906 15.019531 17.851562 15.117188 17.707031 15.230469 C 16.519531 16.15625 15.898438 17.378906 16.101562 18.882812 C 16.394531 21.050781 17.632812 22.761719 18.941406 24.417969 C 18.175781 22.558594 18.546875 20.757812 19.199219 18.972656 C 18.441406 19.972656 18.128906 21.125 18.039062 22.445312 Z M 14.796875 18.292969 C 14.75 18.117188 14.710938 17.9375 14.664062 17.761719 C 14.238281 16.0625 14.636719 14.59375 15.867188 13.355469 C 16.546875 12.671875 17.21875 11.976562 17.882812 11.28125 C 17.929688 11.230469 17.941406 11.140625 17.96875 11.066406 C 17.90625 11.066406 17.820312 11.046875 17.777344 11.082031 C 16.890625 11.804688 15.953125 12.480469 15.144531 13.289062 C 14.140625 14.28125 13.871094 15.558594 14.125 16.945312 C 14.308594 17.941406 14.726562 18.84375 15.210938 19.722656 C 15.246094 19.773438 15.289062 19.820312 15.339844 19.863281 C 15.015625 18.167969 15.296875 16.621094 16.289062 15.207031 C 15.214844 15.988281 14.917969 17.105469 14.882812 18.386719 C 14.824219 18.320312 14.800781 18.308594 14.796875 18.292969 Z M 17.078125 8.09375 C 15.804688 9.1875 14.753906 10.464844 13.929688 11.929688 C 13.84375 12.082031 13.777344 12.246094 13.707031 12.40625 C 13.796875 12.382812 13.875 12.339844 13.9375 12.269531 C 14.296875 11.949219 14.628906 11.589844 15.015625 11.3125 C 15.765625 10.777344 16.625 10.484375 17.496094 10.207031 C 17.707031 10.136719 17.886719 9.964844 18.078125 9.839844 L 18.015625 9.734375 C 16.972656 9.871094 16 10.210938 15.101562 10.761719 C 16.234375 9.40625 17.65625 8.453125 19.1875 7.640625 C 18.410156 7.492188 17.679688 7.578125 17.078125 8.09375 Z M 20.011719 19.429688 C 19.53125 20.585938 19.351562 21.757812 19.882812 22.953125 C 20.21875 23.707031 20.816406 24.226562 21.46875 24.6875 C 22.496094 25.417969 23.625 26.039062 24.308594 27.183594 C 24.257812 26.960938 24.1875 26.746094 24.09375 26.539062 C 23.761719 25.796875 23.152344 25.304688 22.539062 24.8125 C 22.347656 24.65625 22.195312 24.453125 22.046875 24.296875 L 22.046875 24.4375 C 20.8125 23.785156 20.03125 22.550781 20.042969 21.160156 C 20.046875 20.40625 20.179688 19.652344 20.25 18.9375 C 20.183594 19.070312 20.089844 19.246094 20.011719 19.429688 Z M 15.417969 7.75 C 15.804688 7.371094 16.179688 6.96875 16.601562 6.628906 C 16.824219 6.449219 17.125 6.355469 17.40625 6.269531 C 17.984375 6.097656 18.515625 6.3125 19.054688 6.488281 C 19.417969 6.609375 19.796875 6.671875 20.1875 6.765625 C 19.84375 6.511719 19.519531 6.304688 19.234375 6.054688 C 18.515625 5.425781 17.453125 5.308594 16.71875 5.835938 C 15.960938 6.382812 15.53125 7.183594 15.167969 8.035156 C 15.25 7.9375 15.328125 7.835938 15.417969 7.75 Z M 26.480469 10.105469 C 26.429688 9.785156 26.457031 9.367188 26.265625 9.175781 C 25.902344 8.816406 25.472656 8.546875 25.40625 7.941406 C 25.152344 8.335938 24.910156 8.710938 24.777344 9.117188 C 24.507812 9.949219 24.421875 10.207031 25.570312 10.058594 C 26.09375 9.996094 26.132812 9.996094 26.417969 10.457031 C 26.445312 10.316406 26.496094 10.207031 26.480469 10.105469 Z M 17.5 4.742188 C 18.191406 4.628906 18.90625 4.640625 19.609375 4.597656 C 18.742188 4.335938 17.863281 4.265625 16.96875 4.382812 L 19.761719 2.753906 C 19.125 2.589844 16.4375 4.191406 15.507812 5.277344 C 16.144531 5.097656 16.8125 4.859375 17.5 4.742188 Z M 22.605469 4.503906 C 22.140625 3.453125 21.644531 2.441406 20.351562 2.199219 C 20.945312 1.933594 21.527344 1.894531 22.136719 1.957031 C 22.066406 1.875 21.984375 1.789062 21.902344 1.789062 C 21.570312 1.777344 21.242188 1.789062 20.914062 1.824219 C 20.289062 1.898438 19.671875 2.003906 19.003906 2.101562 C 20.519531 2.460938 21.539062 3.511719 22.605469 4.503906 Z M 27.007812 10.53125 C 27.410156 10.292969 27.808594 10.382812 28.210938 10.488281 C 28.457031 10.554688 28.707031 10.601562 28.941406 10.417969 C 28.574219 10.015625 27.707031 9.828125 27.273438 10.074219 C 27.140625 10.152344 27.054688 10.320312 26.949219 10.445312 Z M 21.925781 11.324219 C 21.828125 11.03125 21.65625 10.828125 21.308594 10.875 C 21.226562 10.882812 21.089844 10.925781 21.078125 10.976562 C 21.0625 11.046875 21.113281 11.195312 21.171875 11.21875 C 21.402344 11.316406 21.644531 11.378906 21.882812 11.453125 C 21.898438 11.410156 21.910156 11.367188 21.925781 11.324219 Z M 26.972656 11.371094 C 27.488281 11.433594 27.679688 11.328125 27.753906 10.929688 C 27.292969 10.769531 27.042969 10.90625 26.972656 11.371094 Z M 26.972656 11.371094 "/></g><g style="fill:#000000;fill-opacity:1;"><g transform="translate(111.860324, 19.587593)"><path style="stroke:none" d="M 12.015625 -8.609375 C 13.078125 -8.609375 13.921875 -8.296875 14.546875 -7.671875 C 15.171875 -7.046875 15.484375 -6.109375 15.484375 -4.859375 L 15.484375 0 L 13.015625 0 L 13.015625 -4.484375 C 13.015625 -5.148438 12.875 -5.648438 12.59375 -5.984375 C 12.320312 -6.316406 11.925781 -6.484375 11.40625 -6.484375 C 10.832031 -6.484375 10.375 -6.296875 10.03125 -5.921875 C 9.695312 -5.546875 9.53125 -4.992188 9.53125 -4.265625 L 9.53125 0 L 7.0625 0 L 7.0625 -4.484375 C 7.0625 -5.816406 6.523438 -6.484375 5.453125 -6.484375 C 4.890625 -6.484375 4.4375 -6.296875 4.09375 -5.921875 C 3.757812 -5.546875 3.59375 -4.992188 3.59375 -4.265625 L 3.59375 0 L 1.140625 0 L 1.140625 -8.484375 L 3.484375 -8.484375 L 3.484375 -7.515625 C 3.804688 -7.867188 4.191406 -8.140625 4.640625 -8.328125 C 5.097656 -8.515625 5.601562 -8.609375 6.15625 -8.609375 C 6.75 -8.609375 7.285156 -8.488281 7.765625 -8.25 C 8.253906 -8.019531 8.648438 -7.679688 8.953125 -7.234375 C 9.296875 -7.671875 9.734375 -8.007812 10.265625 -8.25 C 10.796875 -8.488281 11.378906 -8.609375 12.015625 -8.609375 Z M 12.015625 -8.609375 "/></g></g><g style="fill:#000000;fill-opacity:1;"><g transform="translate(128.402033, 19.587593)"><path style="stroke:none" d="M 4.5625 -8.609375 C 5.875 -8.609375 6.878906 -8.296875 7.578125 -7.671875 C 8.285156 -7.046875 8.640625 -6.101562 8.640625 -4.84375 L 8.640625 0 L 6.34375 0 L 6.34375 -1.0625 C 5.882812 -0.269531 5.019531 0.125 3.75 0.125 C 3.101562 0.125 2.539062 0.015625 2.0625 -0.203125 C 1.582031 -0.421875 1.210938 -0.722656 0.953125 -1.109375 C 0.703125 -1.503906 0.578125 -1.953125 0.578125 -2.453125 C 0.578125 -3.234375 0.875 -3.847656 1.46875 -4.296875 C 2.0625 -4.753906 2.984375 -4.984375 4.234375 -4.984375 L 6.1875 -4.984375 C 6.1875 -5.523438 6.019531 -5.9375 5.6875 -6.21875 C 5.363281 -6.507812 4.878906 -6.65625 4.234375 -6.65625 C 3.773438 -6.65625 3.328125 -6.582031 2.890625 -6.4375 C 2.453125 -6.300781 2.082031 -6.113281 1.78125 -5.875 L 0.90625 -7.59375 C 1.363281 -7.914062 1.914062 -8.164062 2.5625 -8.34375 C 3.207031 -8.519531 3.875 -8.609375 4.5625 -8.609375 Z M 4.375 -1.53125 C 4.789062 -1.53125 5.160156 -1.625 5.484375 -1.8125 C 5.816406 -2.007812 6.050781 -2.300781 6.1875 -2.6875 L 6.1875 -3.546875 L 4.5 -3.546875 C 3.488281 -3.546875 2.984375 -3.21875 2.984375 -2.5625 C 2.984375 -2.238281 3.101562 -1.984375 3.34375 -1.796875 C 3.59375 -1.617188 3.9375 -1.53125 4.375 -1.53125 Z M 4.375 -1.53125 "/></g></g><g style="fill:#000000;fill-opacity:1;"><g transform="translate(138.22619, 19.587593)"><path style="stroke:none" d="M 9.78125 -11.703125 L 9.78125 0 L 7.4375 0 L 7.4375 -0.984375 C 6.820312 -0.242188 5.9375 0.125 4.78125 0.125 C 3.976562 0.125 3.253906 -0.0507812 2.609375 -0.40625 C 1.960938 -0.769531 1.453125 -1.28125 1.078125 -1.9375 C 0.710938 -2.601562 0.53125 -3.375 0.53125 -4.25 C 0.53125 -5.125 0.710938 -5.890625 1.078125 -6.546875 C 1.453125 -7.210938 1.960938 -7.722656 2.609375 -8.078125 C 3.253906 -8.429688 3.976562 -8.609375 4.78125 -8.609375 C 5.863281 -8.609375 6.710938 -8.269531 7.328125 -7.59375 L 7.328125 -11.703125 Z M 5.203125 -1.890625 C 5.828125 -1.890625 6.34375 -2.101562 6.75 -2.53125 C 7.164062 -2.957031 7.375 -3.53125 7.375 -4.25 C 7.375 -4.957031 7.164062 -5.523438 6.75 -5.953125 C 6.34375 -6.378906 5.828125 -6.59375 5.203125 -6.59375 C 4.578125 -6.59375 4.054688 -6.378906 3.640625 -5.953125 C 3.234375 -5.523438 3.03125 -4.957031 3.03125 -4.25 C 3.03125 -3.53125 3.234375 -2.957031 3.640625 -2.53125 C 4.054688 -2.101562 4.578125 -1.890625 5.203125 -1.890625 Z M 5.203125 -1.890625 "/></g></g><g style="fill:#000000;fill-opacity:1;"><g transform="translate(149.138362, 19.587593)"><path style="stroke:none" d="M 9.453125 -4.21875 C 9.453125 -4.1875 9.4375 -3.960938 9.40625 -3.546875 L 2.984375 -3.546875 C 3.097656 -3.023438 3.367188 -2.609375 3.796875 -2.296875 C 4.234375 -1.992188 4.769531 -1.84375 5.40625 -1.84375 C 5.851562 -1.84375 6.242188 -1.90625 6.578125 -2.03125 C 6.921875 -2.164062 7.242188 -2.378906 7.546875 -2.671875 L 8.859375 -1.25 C 8.054688 -0.332031 6.882812 0.125 5.34375 0.125 C 4.382812 0.125 3.535156 -0.0625 2.796875 -0.4375 C 2.066406 -0.8125 1.5 -1.328125 1.09375 -1.984375 C 0.695312 -2.648438 0.5 -3.40625 0.5 -4.25 C 0.5 -5.070312 0.695312 -5.816406 1.09375 -6.484375 C 1.488281 -7.160156 2.03125 -7.679688 2.71875 -8.046875 C 3.40625 -8.421875 4.175781 -8.609375 5.03125 -8.609375 C 5.863281 -8.609375 6.613281 -8.429688 7.28125 -8.078125 C 7.957031 -7.722656 8.488281 -7.210938 8.875 -6.546875 C 9.257812 -5.878906 9.453125 -5.101562 9.453125 -4.21875 Z M 5.046875 -6.75 C 4.492188 -6.75 4.023438 -6.59375 3.640625 -6.28125 C 3.265625 -5.96875 3.035156 -5.535156 2.953125 -4.984375 L 7.140625 -4.984375 C 7.046875 -5.523438 6.8125 -5.953125 6.4375 -6.265625 C 6.0625 -6.585938 5.597656 -6.75 5.046875 -6.75 Z M 5.046875 -6.75 "/></g></g><g style="fill:#000000;fill-opacity:1;"><g transform="translate(159.088617, 19.587593)"><path style="stroke:none" d="M 1.140625 -8.484375 L 3.59375 -8.484375 L 3.59375 0 L 1.140625 0 Z M 2.359375 -9.671875 C 1.910156 -9.671875 1.539062 -9.800781 1.25 -10.0625 C 0.96875 -10.332031 0.828125 -10.660156 0.828125 -11.046875 C 0.828125 -11.429688 0.96875 -11.753906 1.25 -12.015625 C 1.539062 -12.285156 1.910156 -12.421875 2.359375 -12.421875 C 2.804688 -12.421875 3.171875 -12.289062 3.453125 -12.03125 C 3.742188 -11.78125 3.890625 -11.46875 3.890625 -11.09375 C 3.890625 -10.6875 3.742188 -10.347656 3.453125 -10.078125 C 3.171875 -9.804688 2.804688 -9.671875 2.359375 -9.671875 Z M 2.359375 -9.671875 "/></g></g><g style="fill:#000000;fill-opacity:1;"><g transform="translate(163.835093, 19.587593)"><path style="stroke:none" d="M 3.484375 -7.375 C 3.773438 -7.78125 4.171875 -8.085938 4.671875 -8.296875 C 5.171875 -8.503906 5.75 -8.609375 6.40625 -8.609375 L 6.40625 -6.34375 C 6.132812 -6.363281 5.953125 -6.375 5.859375 -6.375 C 5.148438 -6.375 4.59375 -6.175781 4.1875 -5.78125 C 3.789062 -5.382812 3.59375 -4.796875 3.59375 -4.015625 L 3.59375 0 L 1.140625 0 L 1.140625 -8.484375 L 3.484375 -8.484375 Z M 3.484375 -7.375 "/></g></g><g style="fill:#000000;fill-opacity:1;"><g transform="translate(170.521101, 19.587593)"><path style="stroke:none" d="M 4.5625 -8.609375 C 5.875 -8.609375 6.878906 -8.296875 7.578125 -7.671875 C 8.285156 -7.046875 8.640625 -6.101562 8.640625 -4.84375 L 8.640625 0 L 6.34375 0 L 6.34375 -1.0625 C 5.882812 -0.269531 5.019531 0.125 3.75 0.125 C 3.101562 0.125 2.539062 0.015625 2.0625 -0.203125 C 1.582031 -0.421875 1.210938 -0.722656 0.953125 -1.109375 C 0.703125 -1.503906 0.578125 -1.953125 0.578125 -2.453125 C 0.578125 -3.234375 0.875 -3.847656 1.46875 -4.296875 C 2.0625 -4.753906 2.984375 -4.984375 4.234375 -4.984375 L 6.1875 -4.984375 C 6.1875 -5.523438 6.019531 -5.9375 5.6875 -6.21875 C 5.363281 -6.507812 4.878906 -6.65625 4.234375 -6.65625 C 3.773438 -6.65625 3.328125 -6.582031 2.890625 -6.4375 C 2.453125 -6.300781 2.082031 -6.113281 1.78125 -5.875 L 0.90625 -7.59375 C 1.363281 -7.914062 1.914062 -8.164062 2.5625 -8.34375 C 3.207031 -8.519531 3.875 -8.609375 4.5625 -8.609375 Z M 4.375 -1.53125 C 4.789062 -1.53125 5.160156 -1.625 5.484375 -1.8125 C 5.816406 -2.007812 6.050781 -2.300781 6.1875 -2.6875 L 6.1875 -3.546875 L 4.5 -3.546875 C 3.488281 -3.546875 2.984375 -3.21875 2.984375 -2.5625 C 2.984375 -2.238281 3.101562 -1.984375 3.34375 -1.796875 C 3.59375 -1.617188 3.9375 -1.53125 4.375 -1.53125 Z M 4.375 -1.53125 "/></g></g></g></svg>