<svg xmlns="http://www.w3.org/2000/svg" xmlns:xlink="http://www.w3.org/1999/xlink" width="40" zoomAndPan="magnify" viewBox="0 0 30 30.000001" height="40" preserveAspectRatio="xMidYMid meet" version="1.2"><defs><clipPath id="1f7ba8a2cb"><path d="M 8 10 L 22 10 L 22 24.457031 L 8 24.457031 Z M 8 10 "/></clipPath><clipPath id="29f7744e2c"><path d="M 7.59375 4.863281 L 22.105469 4.863281 L 22.105469 9.957031 L 7.59375 9.957031 Z M 7.59375 4.863281 "/></clipPath></defs><g id="fba5e4962a"><g clip-rule="nonzero" clip-path="url(#1f7ba8a2cb)"><path style=" stroke:none;fill-rule:nonzero;fill:#686868;fill-opacity:1;" d="M 19.332031 22.636719 C 19.332031 23.082031 18.984375 23.445312 18.554688 23.445312 L 18.320312 23.445312 C 17.886719 23.445312 17.539062 23.082031 17.539062 22.636719 L 17.539062 12.933594 C 17.539062 12.488281 17.886719 12.125 18.320312 12.125 L 18.554688 12.125 C 18.984375 12.125 19.332031 12.488281 19.332031 12.933594 Z M 15.746094 22.636719 C 15.746094 23.082031 15.398438 23.445312 14.964844 23.445312 L 14.730469 23.445312 C 14.300781 23.445312 13.953125 23.082031 13.953125 22.636719 L 13.953125 12.933594 C 13.953125 12.488281 14.300781 12.125 14.730469 12.125 L 14.964844 12.125 C 15.398438 12.125 15.746094 12.488281 15.746094 12.933594 Z M 12.15625 22.636719 C 12.15625 23.082031 11.808594 23.445312 11.378906 23.445312 L 11.144531 23.445312 C 10.714844 23.445312 10.363281 23.082031 10.363281 22.636719 L 10.363281 12.933594 C 10.363281 12.488281 10.714844 12.125 11.144531 12.125 L 11.378906 12.125 C 11.808594 12.125 12.15625 12.488281 12.15625 12.933594 Z M 8.625 10.945312 C 8.609375 10.945312 8.570312 11.023438 8.570312 11.089844 L 8.570312 23.3125 C 8.570312 23.941406 9.246094 24.457031 10.035156 24.457031 L 19.5625 24.457031 C 20.355469 24.457031 21.128906 23.941406 21.128906 23.3125 L 21.128906 11.089844 C 21.128906 11.023438 20.988281 10.945312 20.976562 10.945312 L 8.625 10.945312 "/></g><g clip-rule="nonzero" clip-path="url(#29f7744e2c)"><path style=" stroke:none;fill-rule:nonzero;fill:#686868;fill-opacity:1;" d="M 17.050781 6.550781 L 12.808594 6.550781 L 12.808594 6.230469 C 12.808594 5.828125 13.023438 5.539062 13.421875 5.539062 L 16.308594 5.539062 C 16.707031 5.539062 17.050781 5.828125 17.050781 6.230469 Z M 21.335938 6.550781 L 17.703125 6.550781 L 17.703125 5.828125 C 17.703125 5.289062 17.316406 4.863281 16.792969 4.863281 L 12.9375 4.863281 C 12.414062 4.863281 11.996094 5.289062 11.996094 5.828125 L 11.996094 6.550781 L 8.394531 6.550781 C 7.96875 6.550781 7.59375 6.890625 7.59375 7.335938 L 7.59375 9.929688 L 22.105469 9.929688 L 22.105469 7.335938 C 22.105469 6.890625 21.761719 6.550781 21.335938 6.550781 "/></g></g></svg>